<?xml version="1.0" encoding="UTF-8" standalone="no"?>
<svg
   data-noselect=""
   viewBox="0 0 128 128"
   width="128"
   height="128"
   preserveAspectRatio="none"
   version="1.1"
   class="svg-canvas"
   id="svg83"
   sodipodi:docname="hdid.net.ico.svg"
   inkscape:version="1.1.2 (76b9e6a115, 2022-02-25)"
   xmlns:inkscape="http://www.inkscape.org/namespaces/inkscape"
   xmlns:sodipodi="http://sodipodi.sourceforge.net/DTD/sodipodi-0.dtd"
   xmlns="http://www.w3.org/2000/svg"
   xmlns:svg="http://www.w3.org/2000/svg">
  <sodipodi:namedview
     id="namedview85"
     pagecolor="#ffffff"
     bordercolor="#666666"
     borderopacity="1.0"
     inkscape:pageshadow="2"
     inkscape:pageopacity="0.0"
     inkscape:pagecheckerboard="true"
     showgrid="false"
     inkscape:zoom="2"
     inkscape:cx="131.75"
     inkscape:cy="184.25"
     inkscape:window-width="1848"
     inkscape:window-height="1009"
     inkscape:window-x="72"
     inkscape:window-y="34"
     inkscape:window-maximized="1"
     inkscape:current-layer="svg83" />
  <defs
     id="defs2" />
  <g
     id="g29"
     transform="matrix(0.52756353,0,0,1.6058631,-31.069481,-95.580326)">
    <rect
       x="112.3"
       y="63.200001"
       width="14.6"
       height="24.9"
       fill="#4908b1"
       stroke-width="0"
       id="rect9" />
    <path
       d="m 126.9,136.8 v 0 -27.8 h -14.6 v 13.2 c 0,8.1 6.5,14.6 14.6,14.6 z"
       fill="#4908b1"
       stroke-width="0"
       id="path11" />
    <rect
       x="120.2"
       y="95.400002"
       width="3"
       height="3"
       fill="#4908b1"
       stroke-width="0"
       id="rect13" />
    <rect
       x="120.2"
       y="102"
       width="3"
       height="3"
       fill="#4908b1"
       stroke-width="0"
       id="rect15" />
    <rect
       x="123.8"
       y="92.099998"
       width="3"
       height="3"
       fill="#4908b1"
       stroke-width="0"
       id="rect17" />
    <rect
       x="123.8"
       y="98.699997"
       width="3"
       height="3"
       fill="#4908b1"
       stroke-width="0"
       id="rect19" />
    <rect
       x="127.4"
       y="95.400002"
       width="3"
       height="3"
       fill="#4908b1"
       stroke-width="0"
       id="rect21" />
    <rect
       x="127.4"
       y="102"
       width="3"
       height="3"
       fill="#4908b1"
       stroke-width="0"
       id="rect23" />
    <path
       d="m 84.4,86.2 v -23 H 69.6 v 31.2 c 2.5,-0.2 4.9,-0.8 7.3,-2 3,-1.5 5.5,-3.6 7.5,-6.2 z"
       fill="#4908b1"
       stroke-width="0"
       id="path25" />
    <path
       d="m 116.5,101.7 h 3 v -3 h -3 v -3.6 h 3 v -3 h -3 -32.2 v 0 c -1.7,1.5 -3.6,2.8 -5.7,3.9 -2.9,1.4 -6,2.2 -9,2.4 v 38.5 0 c 8.1,0 14.7,-6.6 14.7,-14.7 V 105 h 32.2 z"
       fill="#4908b1"
       stroke-width="0"
       id="path27" />
  </g>
  <path
     d="M 68.378337,47.908992 52.094609,38.616039 50.397078,84.562803 68.930709,75.083369 Z m 2.883109,34.737204 -22.525974,11.582522 -2.29032,-4.558417 2.133142,-56.710842 2.330737,-3.739974 19.683283,11.03344 1.459517,4.009334 0.633207,34.012002 z"
     fill="#4908b1"
     stroke="#4908b1"
     stroke-width="6.9212"
     stroke-miterlimit="3"
     data-glyph-w="61.952"
     data-glyph-h="88"
     data-glyph-ascender="75.592"
     data-glyph-descender="-12.408"
     id="path37" />
  <path
     d="M 86.54911,30.58701 85.165937,93.223794 81.452025,92.767952 82.79478,30.131169 Z"
     fill="#4908b1"
     stroke="#4908b1"
     stroke-width="6.9212"
     stroke-miterlimit="3"
     data-glyph-w="14.872"
     data-glyph-h="88"
     data-glyph-ascender="75.592"
     data-glyph-descender="-12.408"
     id="path39" />
  <path
     d="m 116.35111,47.908992 -16.28372,-9.292953 -1.697534,45.946764 18.533634,-9.479434 z m 2.88312,34.737204 -22.525984,11.582522 -2.29031,-4.558417 2.133135,-56.710842 2.330737,-3.739974 19.683282,11.03344 1.45952,4.009334 0.6332,34.012002 z"
     fill="#4908b1"
     stroke="#4908b1"
     stroke-width="6.9212"
     stroke-miterlimit="3"
     data-glyph-w="61.952"
     data-glyph-h="88"
     data-glyph-ascender="75.592"
     data-glyph-descender="-12.408"
     id="path41" />
  <g
     id="shape_PTgxePPlW6"
     transform="matrix(0.76266838,0,0,0.72815694,50.45071,24.592686)"
     filter=""
     style="opacity:1">
    <g
       id="g70">
      <svg
         version="1.1"
         width="197"
         height="239.7"
         viewBox="0 0 197 239.7"
         id="svg68">
        <g
           data-width="64.64699999999999"
           transform="translate(33.1765)"
           id="g66">
          <path
             d="m 2.41,-0.92 v 0 -21.29 q 0,-0.89 0.99,-0.89 v 0 q 0.73,0 1.42,0.63 v 0 l 14.02,12.34 v -12.08 q 0,-0.89 1.26,-0.89 v 0 q 0.49,0 0.84,0.23 0.35,0.23 0.35,0.66 v 0 21.29 q 0,0.43 -0.37,0.67 Q 20.56,0 20.06,0 v 0 q -1.22,0 -1.22,-0.92 v 0 -6.01 L 4.85,-19.24 v 18.32 q 0,0.43 -0.36,0.67 Q 4.13,0 3.63,0 V 0 Q 2.41,0 2.41,-0.92 Z"
             transform="translate(0,130.35)"
             fill="#4908b1"
             stroke="#4908b1"
             stroke-width="1.1"
             data-glyph-w="23.694"
             data-glyph-h="39.765"
             data-glyph-ascender="31.35"
             data-glyph-descender="-8.415"
             id="path60" />
          <path
             d="m 2.41,-1.68 v 0 -19.77 q 0,-1.62 0.86,-1.62 v 0 h 16.96 q 0.43,0 0.68,0.37 0.24,0.36 0.24,0.85 v 0 q 0,1.22 -0.92,1.22 v 0 H 4.85 v 6.47 h 12.41 q 0.43,0 0.68,0.37 0.24,0.36 0.24,0.85 v 0 q 0,1.23 -0.92,1.23 v 0 H 4.85 v 9.27 h 15.38 q 0.43,0 0.68,0.36 0.24,0.36 0.24,0.86 v 0 Q 21.15,0 20.23,0 V 0 H 3.27 Q 2.71,0 2.56,-0.4 2.41,-0.79 2.41,-1.68 Z"
             transform="translate(23.694,130.35)"
             fill="#4908b1"
             stroke="#4908b1"
             stroke-width="1.1"
             data-glyph-w="22.176"
             data-glyph-h="39.765"
             data-glyph-ascender="31.35"
             data-glyph-descender="-8.415"
             id="path62" />
          <path
             d="m 0.33,-21.91 v 0 q 0,-0.5 0.23,-0.84 0.23,-0.35 0.66,-0.35 v 0 h 16.3 q 0.43,0 0.68,0.36 0.25,0.37 0.25,0.86 v 0 q 0,1.22 -0.93,1.22 v 0 H 10.4 v 19.74 q 0,0.43 -0.37,0.67 Q 9.67,0 9.17,0 V 0 Q 7.95,0 7.95,-0.92 v 0 -19.74 H 1.22 q -0.89,0 -0.89,-1.25 z"
             transform="translate(45.87,130.35)"
             fill="#4908b1"
             stroke="#4908b1"
             stroke-width="1.1"
             data-glyph-w="18.777"
             data-glyph-h="39.765"
             data-glyph-ascender="31.35"
             data-glyph-descender="-8.415"
             id="path64" />
        </g>
      </svg>
    </g>
  </g>
  <defs
     id="defs79">
    <pattern
       id="wm_tile"
       x="0"
       y="0"
       width="20%"
       height="27%"
       patternunits="objectBoundingBox">
      <g
         id="wm_lm"
         transform="translate(-188.000000, -323.000000)"
         fill="#cccccc">
        <text
           font-size="15"
           transform="translate(270.490979, 373.245789) rotate(-390.000000) translate(-270.490979, -373.245789)"
           id="text75"><tspan
             x="187.490979"
             opacity=".3"
             y="378.245789"
             id="tspan73">copyright © copyright © </tspan></text>
      </g>
    </pattern>
  </defs>
</svg>
