<?xml version="1.0" standalone="no"?>
<!DOCTYPE svg PUBLIC "-//W3C//DTD SVG 20010904//EN"
 "http://www.w3.org/TR/2001/REC-SVG-20010904/DTD/svg10.dtd">
<svg version="1.0" xmlns="http://www.w3.org/2000/svg"
 width="700.000000pt" height="700.000000pt" viewBox="0 0 700.000000 700.000000"
 preserveAspectRatio="xMidYMid meet">
<metadata>
Created by potrace 1.14, written by Peter Selinger 2001-2017
</metadata>
<g transform="translate(0.000000,700.000000) scale(0.100000,-0.100000)"
fill="#000000" stroke="none">
<path d="M310 5308 c0 -752 2 -1368 5 -1368 20 0 80 34 115 66 101 92 198 282
273 537 l33 112 -1 1010 0 1010 -212 1 -213 0 0 -1368z"/>
<path d="M1540 5583 l0 -1093 210 0 210 0 1 38 c1 45 1 2123 0 2138 -1 7 -68
10 -211 10 l-210 0 0 -1093z"/>
<path d="M2705 5630 c-3 -11 -10 -20 -15 -20 -4 0 -10 -8 -14 -17 -3 -10 -32
-61 -65 -113 -149 -234 -139 -213 -145 -330 -3 -58 -8 -179 -11 -270 -3 -91
-8 -212 -10 -270 -2 -58 -7 -172 -10 -255 -10 -292 -22 -602 -30 -800 -2 -60
-7 -184 -10 -275 -3 -91 -7 -214 -10 -275 -2 -60 -7 -177 -10 -260 -7 -191
-12 -319 -20 -525 l-7 -166 117 -232 118 -231 151 78 c83 43 241 125 351 181
110 56 297 152 415 213 118 61 291 150 384 198 l168 86 55 164 c63 189 60 139
49 689 -7 339 -12 603 -21 1100 l-6 315 -57 157 -57 158 -55 30 c-30 17 -73
41 -95 53 -22 13 -67 39 -100 57 -33 18 -202 113 -375 210 -173 97 -342 192
-375 210 -33 18 -110 62 -172 97 -62 34 -117 63 -122 63 -5 0 -13 -9 -16 -20z
m464 -1142 c69 -40 142 -82 162 -93 20 -11 78 -44 130 -74 l94 -53 2 -172 c1
-94 5 -310 9 -481 3 -170 7 -377 8 -459 l1 -149 -105 -54 c-58 -30 -197 -101
-309 -158 l-203 -104 6 192 c4 106 9 233 11 282 2 50 6 171 9 270 4 99 8 234
11 300 11 247 14 335 21 530 8 219 11 289 13 293 3 6 24 -4 140 -70z"/>
<path d="M5307 5598 c-80 -123 -206 -328 -211 -345 -3 -10 -8 -101 -11 -203
-4 -102 -8 -228 -10 -280 -2 -52 -6 -167 -10 -255 -3 -88 -8 -205 -10 -260 -3
-55 -7 -176 -10 -270 -3 -93 -7 -215 -10 -270 -2 -55 -7 -172 -10 -260 -8
-233 -13 -359 -21 -550 -3 -93 -7 -204 -9 -245 -9 -272 -17 -484 -20 -539 l-4
-64 117 -233 116 -233 256 131 c140 72 323 166 405 208 83 43 227 117 320 165
94 48 242 124 330 169 l160 83 57 173 57 174 -4 205 c-7 325 -15 729 -21 1071
-3 173 -7 390 -9 482 l-3 166 -53 144 c-28 79 -54 149 -56 155 -5 12 -58 43
-448 261 -93 52 -199 111 -235 132 -36 21 -101 57 -145 80 -44 24 -87 49 -96
56 -8 8 -19 14 -22 14 -4 0 -78 40 -165 90 -88 49 -166 92 -174 95 -11 5 -26
-9 -51 -47z m538 -1141 c83 -46 168 -95 190 -107 68 -38 130 -73 135 -77 5 -5
7 -55 14 -423 3 -162 9 -417 12 -566 l5 -272 -33 -20 c-18 -10 -158 -83 -310
-161 l-278 -141 5 112 c2 62 7 190 10 283 4 94 8 211 10 260 2 50 6 169 10
265 3 96 8 222 10 280 4 94 13 320 20 530 2 41 4 92 4 113 1 36 2 37 24 23 12
-7 90 -52 172 -99z"/>
<path d="M4349 5566 c-5 -3 -8 -89 -14 -381 -3 -181 -8 -404 -10 -495 -2 -91
-7 -289 -10 -440 -3 -151 -8 -363 -10 -470 -3 -107 -7 -316 -10 -465 -3 -148
-8 -355 -10 -460 -2 -104 -7 -314 -10 -465 -3 -151 -7 -355 -10 -452 -4 -138
-2 -178 8 -179 30 -3 75 -9 112 -14 22 -3 63 -8 90 -11 28 -2 79 -8 115 -14
133 -19 242 -31 247 -26 5 5 9 108 17 546 3 151 8 370 11 485 3 116 7 320 10
455 3 135 7 328 10 430 2 102 7 311 10 465 3 154 8 359 10 455 10 420 17 772
19 865 l1 100 -55 7 c-30 4 -81 10 -112 13 -31 3 -65 7 -75 9 -10 2 -47 7 -83
10 -36 4 -107 13 -157 20 -51 7 -94 12 -94 12z"/>
<path d="M715 4092 c-27 -73 -120 -256 -156 -309 -65 -93 -188 -193 -239 -193
-7 0 -10 -560 -10 -1696 l0 -1695 23 7 c115 35 198 149 275 379 29 87 69 254
78 325 2 19 6 46 9 60 3 14 8 48 10 75 3 28 8 66 10 85 13 101 18 345 19 1073
l1 802 463 0 462 0 1 25 c0 14 1 79 2 145 l2 120 40 0 40 0 3 133 3 132 -45 0
-44 0 0 155 c0 85 4 156 9 156 5 1 24 2 42 3 l32 1 3 132 3 133 -509 0 -509 0
-18 -48z"/>
<path d="M1873 4006 l2 -131 40 1 40 0 3 132 3 132 -45 -2 -45 -1 2 -131z"/>
<path d="M1770 3716 l0 -134 33 3 c17 2 37 4 42 4 7 1 10 50 10 131 l0 130
-42 0 -43 0 0 -134z"/>
<path d="M1978 3838 c-3 -11 -3 -192 1 -239 1 -18 68 -20 79 -2 4 6 7 64 6
130 l-1 118 -40 3 c-27 2 -42 -1 -45 -10z"/>
<path d="M1874 3428 l1 -132 40 0 40 -1 3 133 3 132 -45 0 -44 0 2 -132z"/>
<path d="M1770 3138 l0 -134 38 2 c20 1 39 3 42 3 3 1 6 58 5 129 l0 127 -43
3 -42 3 0 -133z"/>
<path d="M1978 3258 c-3 -10 -2 -227 1 -249 1 -8 70 -4 78 5 4 4 7 63 8 131
l0 125 -41 0 c-25 0 -44 -5 -46 -12z"/>
<path d="M1543 2643 c-7 -17 3 -1428 10 -1478 3 -22 9 -65 12 -95 10 -91 36
-241 52 -305 8 -33 16 -67 18 -76 4 -21 31 -105 50 -158 44 -120 94 -204 157
-262 44 -40 104 -64 114 -47 9 14 9 2417 0 2425 -4 4 -97 7 -208 8 -149 0
-202 -3 -205 -12z"/>
<path d="M4260 1403 c-39 -14 -40 -23 -40 -476 0 -262 4 -446 10 -456 21 -41
123 -31 134 13 3 12 5 172 5 355 0 184 2 335 4 337 1 2 19 -11 38 -29 19 -18
73 -63 119 -101 83 -68 207 -173 319 -269 l56 -49 1 -124 c1 -136 6 -150 57
-160 33 -5 83 19 88 43 4 15 3 840 0 880 -1 18 -51 40 -84 38 -60 -4 -62 -13
-61 -259 0 -154 -3 -223 -11 -219 -9 6 -113 91 -125 103 -3 3 -61 52 -130 110
-69 58 -136 115 -150 126 -84 73 -164 134 -175 134 -8 0 -19 2 -27 4 -7 3 -20
2 -28 -1z"/>
<path d="M5249 1402 c-36 -7 -39 -43 -39 -486 0 -357 2 -436 14 -452 14 -18
30 -19 391 -20 331 -1 379 1 396 15 40 33 28 106 -20 118 -14 4 -163 7 -331 7
l-305 1 1 160 0 160 259 3 c223 2 261 5 277 19 23 21 23 74 1 102 -17 20 -27
21 -278 24 l-260 2 0 90 c0 50 2 97 6 105 6 13 51 15 319 15 353 -1 352 -1
352 69 0 73 12 71 -400 71 -202 0 -374 -1 -383 -3z"/>
<path d="M6089 1402 c-24 -7 -39 -35 -39 -73 0 -58 13 -62 173 -63 l142 -1 0
-392 c0 -341 2 -394 16 -408 22 -23 57 -26 95 -10 31 13 34 18 35 57 0 24 0
202 1 396 0 193 3 353 7 353 3 1 70 2 148 3 117 1 145 5 160 18 26 23 27 70 4
99 l-19 24 -355 0 c-195 1 -361 -1 -368 -3z"/>
</g>
</svg>
